# xmcd
#
# Track frame offsets:
#	150
#	11014
#	28081
#	44211
#	57689
#	69831
#	87215
#	99397
#	114835
#	127691
#	142035
#	157142
#
# Disc length: 2369 seconds
#
# Revision: 1
# Processed by: cddbd v1.5.2PL0 Copyright (c) Steve Scherf et al.
# Submitted via: audiograbber 1.83.01
#
DISCID=a2093f0c
DTITLE=Timelesstyle - Timelesstyle 005
DYEAR=2007
DGENRE=Country
TTITLE0=Del Rio  - Brian Burns
TTITLE1=You Ask Me To  - Brigitte London
TTITLE2=The Last Man In Texas  - Kevin Banford
TTITLE3=Ghost Riders In The Sky  - Gary and Sue Ball
TTITLE4=Six Pack Pretty  - Jay Hollis
TTITLE5=Ol Train Whisle  - Tim Scott
TTITLE6=Cold, Cold Ground  - Teresa Garner
TTITLE7=Falling  - Bobby G. Gargill
TTITLE8=Oregon Trail  - Joni Harms
TTITLE9=Too Far Back To Texas  - Ken Overcast
TTITLE10=Here´s The Deal  - Katelyn Hobson
TTITLE11=Best Move I Ever Made  - Tony Brook
EXTD=
EXTT0=
EXTT1=
EXTT2=
EXTT3=
EXTT4=
EXTT5=
EXTT6=
EXTT7=
EXTT8=
EXTT9=
EXTT10=
EXTT11=
PLAYORDER=
